<?xml version="1.0" encoding="utf-8"?>
<!-- Generator: Adobe Illustrator 22.1.0, SVG Export Plug-In . SVG Version: 6.00 Build 0)  -->
<svg version="1.1" xmlns="http://www.w3.org/2000/svg" xmlns:xlink="http://www.w3.org/1999/xlink" x="0px" y="0px"
	 viewBox="0 0 1400 1400" style="enable-background:new 0 0 1400 1400;" xml:space="preserve">
<style type="text/css">
	.st0{fill:#97F0FC;}
	.st1{opacity:0.44;fill:#676D6C;}
	.st2{opacity:0.25;}
	.st3{fill:#676D6C;}
	.st4{opacity:0.25;fill:#676D6C;}
	.st5{fill:#FFFFFF;}
	.st6{opacity:0.19;fill:#676D6C;}
	.st7{fill:#04352E;}
	.st8{fill:#33A89D;}
	.st9{fill:#18665B;}
	.st10{fill:#054941;}
	.st11{fill:#1D9385;}
	.st12{opacity:0.45;fill:#04352E;}
	.st13{opacity:0.16;}
	.st14{fill:#5E2F05;}
	.st15{fill:#3F1F04;}
	.st16{fill:#3E949B;}
	.st17{fill:#158FAF;}
	.st18{fill:#38B2CE;}
	.st19{fill:#037691;}
	.st20{fill:#F2F3F4;}
	.st21{fill:#DEE0E2;}
	.st22{fill:#FFBA97;}
</style>
<g id="BACKGROUND">
	<rect class="st0" width="1400" height="1400"/>
</g>
<g id="OBJECT">
	<g>
		<path class="st1" d="M1277.7,699.4c-69.4-27.9-148.2,5.7-176.1,75.1c-24.2,60.1-2.1,127.4,49.4,162.4l-31.6,78.5
			c-4.8,12,1,25.7,13,30.5c12,4.8,25.7-1,30.5-13l30.8-76.7c64.8,16.6,133.5-17,159.1-80.7C1380.7,806.2,1347.1,727.3,1277.7,699.4z
			"/>
		<g class="st2">
			<rect x="340.9" y="521.8" class="st3" width="14.6" height="47.6"/>
			<path class="st3" d="M1141.8,458.6h-41.2v6.4v8.9v13.2v3.7h-38.2v-4.8c0-19.5-15.5-35.4-34.8-36.1V441h17.9v-29.2h54.5
				c7.3,0,13.3-5.9,13.3-13.3v0c0-0.7,0-19.7,0-19.7c0-7.8-6.3-14.1-14.1-14.1h-13.4c-7.8,0-14.1,6.3-14.1,14.1v6.5h-26.2v-27.4
				h-19.9c-2.9-5.1-8.5-8.5-15.1-8.5h-27.2V156.5H466.7v192.8h-36.8c-6.5,0-12.2,3.5-15.1,8.5h-18.9v30h-88.2
				c-6.4,0-11.6,5.2-11.6,11.6v148.3l-29.8,15.1c-4.3,2.2-7,6.5-7,11.3v17.8c0,7,5.7,12.7,12.7,12.7H308c7,0,12.7-5.7,12.7-12.7
				V430.2c0-4.1,3.3-7.3,7.3-7.3h23.1c3.5,0,6.7-1.8,8.6-4.7l0.6-0.9c3-4.7,8.2-7.5,13.7-7.5h22V441h16.9v8.8
				c-19.3,0.7-34.8,16.6-34.8,36.1v45.6h-22.5v28.2h22.5v17.6v24.1v14.7v38.5v178.6h0l31.3,214.9c3.3,22.4,22.1,38.9,44.2,38.9
				h533.2c22.2,0,41-16.6,44.2-38.9l31.3-214.9h0V654.7v-38.5v-14.7v-24.1v-16.9h38.2v1.7v13.2v8.9v8h41.2h17.8v-8v-8.9v-13.2v-8.9
				v-13.2v-8.9v-13.2v-8.9V496v-8.9v-13.2V465v-6.4H1141.8z M1009.5,449.9h-26.2V441h26.2V449.9z M466.7,441v8.8H431V441H466.7z"/>
		</g>
		<path class="st4" d="M387.2,1111.4l-20.5-87.9l0,0L362,1003l-30.3-130.2c-5.9-25.2-31-40.9-56.2-35l-153,35.6v0l-24.9,5.8l0,0
			L81,883.1c-9.9,2.3-16.1,12.2-13.8,22.1l17.2,73.7h0l24.4,104.7h0l26.9,115.5c2.3,9.9,12.2,16.1,22.1,13.8l31.7-7.4l3.3-0.8l0,0
			l159.4-37.1C377.4,1161.7,393.1,1136.6,387.2,1111.4z"/>
		
			<rect x="148.8" y="630.8" transform="matrix(0.958 -0.2866 0.2866 0.958 -225.4021 126.8463)" class="st5" width="343.6" height="404.9"/>
		
			<rect x="154.8" y="576.3" transform="matrix(0.958 -0.2866 0.2866 0.958 -209.5056 126.2944)" class="st6" width="343.6" height="404.9"/>
		
			<rect x="163.9" y="552" transform="matrix(0.958 -0.2866 0.2866 0.958 -202.1718 127.8837)" class="st5" width="343.6" height="404.9"/>
		<g>
			<rect x="375.3" y="337.2" class="st7" width="649.5" height="83.2"/>
			<path class="st7" d="M357.5,465.3v91.4h684.3v-91.4c0-19.9-16.2-36.1-36.1-36.1H393.6C373.6,429.3,357.5,445.4,357.5,465.3z"/>
			<rect x="1041.5" y="470.2" class="st7" width="41.1" height="69.7"/>
			<rect x="1080" y="438" class="st7" width="59" height="133.6"/>
			<polygon class="st8" points="357.5,556.8 357.5,812.7 632,821 632,825.1 699.6,823 767.2,825.1 767.2,821 1041.7,812.7 
				1041.7,556.8 			"/>
			<path class="st9" d="M357.5,556.8v24.1v14.7v38.5c7.8-7.7,16.7-16.4,24.3-23.7c9.8-9.5,22.9-14.8,36.6-14.8h562.5
				c13.6,0,26.8,5.3,36.6,14.8c7.6,7.3,16.5,16,24.3,23.7v-38.5v-14.7v-24.1H357.5z"/>
			<path class="st8" d="M1041.8,812.7H357.5l31.3,214.9c3.3,22.4,22.1,38.9,44.2,38.9h533.2c22.2,0,41-16.6,44.2-38.9L1041.8,812.7z
				"/>
			<path class="st10" d="M433,1057.4c-13.6,0-25.5-10.9-27.5-25.3L377,829.6h645.2l-28.5,202.5c-2,14.4-13.9,25.3-27.5,25.3H433z"/>
			<g>
				<g>
					<path class="st5" d="M517.2,970.1h-17.3c-4.7,0-8.6,3.8-8.6,8.6V996c0,4.7,3.8,8.6,8.6,8.6h17.3c4.7,0,8.6-3.8,8.6-8.6v-17.3
						C525.7,973.9,521.9,970.1,517.2,970.1z"/>
					<path class="st5" d="M561.8,970.1h-17.3c-4.7,0-8.6,3.8-8.6,8.6V996c0,4.7,3.8,8.6,8.6,8.6h17.3c4.7,0,8.6-3.8,8.6-8.6v-17.3
						C570.3,973.9,566.5,970.1,561.8,970.1z"/>
					<path class="st5" d="M606.3,970.1H589c-4.7,0-8.6,3.8-8.6,8.6V996c0,4.7,3.8,8.6,8.6,8.6h17.3c4.7,0,8.6-3.8,8.6-8.6v-17.3
						C614.9,973.9,611.1,970.1,606.3,970.1z"/>
					<path class="st5" d="M650.9,970.1h-17.3c-4.7,0-8.6,3.8-8.6,8.6V996c0,4.7,3.8,8.6,8.6,8.6h17.3c4.7,0,8.6-3.8,8.6-8.6v-17.3
						C659.5,973.9,655.6,970.1,650.9,970.1z"/>
					<path class="st5" d="M695.5,970.1h-17.3c-4.7,0-8.6,3.8-8.6,8.6V996c0,4.7,3.8,8.6,8.6,8.6h17.3c4.7,0,8.6-3.8,8.6-8.6v-17.3
						C704.1,973.9,700.2,970.1,695.5,970.1z"/>
					<path class="st5" d="M740.1,970.1h-17.3c-4.7,0-8.6,3.8-8.6,8.6V996c0,4.7,3.8,8.6,8.6,8.6h17.3c4.7,0,8.6-3.8,8.6-8.6v-17.3
						C748.6,973.9,744.8,970.1,740.1,970.1z"/>
					<path class="st5" d="M784.7,970.1h-17.3c-4.7,0-8.6,3.8-8.6,8.6V996c0,4.7,3.8,8.6,8.6,8.6h17.3c4.7,0,8.6-3.8,8.6-8.6v-17.3
						C793.2,973.9,789.4,970.1,784.7,970.1z"/>
					<path class="st5" d="M829.2,970.1h-17.3c-4.7,0-8.6,3.8-8.6,8.6V996c0,4.7,3.8,8.6,8.6,8.6h17.3c4.7,0,8.6-3.8,8.6-8.6v-17.3
						C837.8,973.9,834,970.1,829.2,970.1z"/>
					<path class="st5" d="M873.8,970.1h-17.3c-4.7,0-8.6,3.8-8.6,8.6V996c0,4.7,3.8,8.6,8.6,8.6h17.3c4.7,0,8.6-3.8,8.6-8.6v-17.3
						C882.4,973.9,878.6,970.1,873.8,970.1z"/>
					<path class="st5" d="M918.4,970.1h-17.3c-4.7,0-8.6,3.8-8.6,8.6V996c0,4.7,3.8,8.6,8.6,8.6h17.3c4.7,0,8.6-3.8,8.6-8.6v-17.3
						C927,973.9,923.1,970.1,918.4,970.1z"/>
				</g>
				<g>
					<path class="st5" d="M493.7,930h-17.3c-4.7,0-8.6,3.8-8.6,8.6v17.3c0,4.7,3.8,8.6,8.6,8.6h17.3c4.7,0,8.6-3.8,8.6-8.6v-17.3
						C502.3,933.8,498.5,930,493.7,930z"/>
					<path class="st5" d="M538.3,930H521c-4.7,0-8.6,3.8-8.6,8.6v17.3c0,4.7,3.8,8.6,8.6,8.6h17.3c4.7,0,8.6-3.8,8.6-8.6v-17.3
						C546.9,933.8,543,930,538.3,930z"/>
					<path class="st5" d="M582.9,930h-17.3c-4.7,0-8.6,3.8-8.6,8.6v17.3c0,4.7,3.8,8.6,8.6,8.6h17.3c4.7,0,8.6-3.8,8.6-8.6v-17.3
						C591.4,933.8,587.6,930,582.9,930z"/>
					<path class="st5" d="M627.5,930h-17.3c-4.7,0-8.6,3.8-8.6,8.6v17.3c0,4.7,3.8,8.6,8.6,8.6h17.3c4.7,0,8.6-3.8,8.6-8.6v-17.3
						C636,933.8,632.2,930,627.5,930z"/>
					<path class="st5" d="M672.1,930h-17.3c-4.7,0-8.6,3.8-8.6,8.6v17.3c0,4.7,3.8,8.6,8.6,8.6h17.3c4.7,0,8.6-3.8,8.6-8.6v-17.3
						C680.6,933.8,676.8,930,672.1,930z"/>
					<path class="st5" d="M716.6,930h-17.3c-4.7,0-8.6,3.8-8.6,8.6v17.3c0,4.7,3.8,8.6,8.6,8.6h17.3c4.7,0,8.6-3.8,8.6-8.6v-17.3
						C725.2,933.8,721.4,930,716.6,930z"/>
					<path class="st5" d="M761.2,930h-17.3c-4.7,0-8.6,3.8-8.6,8.6v17.3c0,4.7,3.8,8.6,8.6,8.6h17.3c4.7,0,8.6-3.8,8.6-8.6v-17.3
						C769.8,933.8,765.9,930,761.2,930z"/>
					<path class="st5" d="M805.8,930h-17.3c-4.7,0-8.6,3.8-8.6,8.6v17.3c0,4.7,3.8,8.6,8.6,8.6h17.3c4.7,0,8.6-3.8,8.6-8.6v-17.3
						C814.3,933.8,810.5,930,805.8,930z"/>
					<path class="st5" d="M850.4,930h-17.3c-4.7,0-8.6,3.8-8.6,8.6v17.3c0,4.7,3.8,8.6,8.6,8.6h17.3c4.7,0,8.6-3.8,8.6-8.6v-17.3
						C858.9,933.8,855.1,930,850.4,930z"/>
					<path class="st5" d="M895,930h-17.3c-4.7,0-8.6,3.8-8.6,8.6v17.3c0,4.7,3.8,8.6,8.6,8.6H895c4.7,0,8.6-3.8,8.6-8.6v-17.3
						C903.5,933.8,899.7,930,895,930z"/>
					<path class="st5" d="M940.2,930h-17.3c-4.7,0-8.6,3.8-8.6,8.6v17.3c0,4.7,3.8,8.6,8.6,8.6h17.3c4.7,0,8.6-3.8,8.6-8.6v-17.3
						C948.8,933.8,945,930,940.2,930z"/>
				</g>
				<g>
					<path class="st5" d="M480.1,890.1h-17.3c-4.7,0-8.6,3.8-8.6,8.6v17.3c0,4.7,3.8,8.6,8.6,8.6h17.3c4.7,0,8.6-3.8,8.6-8.6v-17.3
						C488.6,893.9,484.8,890.1,480.1,890.1z"/>
					<path class="st5" d="M524.7,890.1h-17.3c-4.7,0-8.6,3.8-8.6,8.6v17.3c0,4.7,3.8,8.6,8.6,8.6h17.3c4.7,0,8.6-3.8,8.6-8.6v-17.3
						C533.2,893.9,529.4,890.1,524.7,890.1z"/>
					<path class="st5" d="M569.3,890.1H552c-4.7,0-8.6,3.8-8.6,8.6v17.3c0,4.7,3.8,8.6,8.6,8.6h17.3c4.7,0,8.6-3.8,8.6-8.6v-17.3
						C577.8,893.9,574,890.1,569.3,890.1z"/>
					<path class="st5" d="M613.8,890.1h-17.3c-4.7,0-8.6,3.8-8.6,8.6v17.3c0,4.7,3.8,8.6,8.6,8.6h17.3c4.7,0,8.6-3.8,8.6-8.6v-17.3
						C622.4,893.9,618.6,890.1,613.8,890.1z"/>
					<path class="st5" d="M661,890.1h-17.3c-4.7,0-8.6,3.8-8.6,8.6v17.3c0,4.7,3.8,8.6,8.6,8.6H661c4.7,0,8.6-3.8,8.6-8.6v-17.3
						C669.6,893.9,665.7,890.1,661,890.1z"/>
					<path class="st5" d="M706.2,890.1h-17.3c-4.7,0-8.6,3.8-8.6,8.6v17.3c0,4.7,3.8,8.6,8.6,8.6h17.3c4.7,0,8.6-3.8,8.6-8.6v-17.3
						C714.8,893.9,711,890.1,706.2,890.1z"/>
					<path class="st5" d="M751.5,890.1h-17.3c-4.7,0-8.6,3.8-8.6,8.6v17.3c0,4.7,3.8,8.6,8.6,8.6h17.3c4.7,0,8.6-3.8,8.6-8.6v-17.3
						C760,893.9,756.2,890.1,751.5,890.1z"/>
					<path class="st5" d="M796.7,890.1h-17.3c-4.7,0-8.6,3.8-8.6,8.6v17.3c0,4.7,3.8,8.6,8.6,8.6h17.3c4.7,0,8.6-3.8,8.6-8.6v-17.3
						C805.3,893.9,801.4,890.1,796.7,890.1z"/>
					<path class="st5" d="M842.6,890.1h-17.3c-4.7,0-8.6,3.8-8.6,8.6v17.3c0,4.7,3.8,8.6,8.6,8.6h17.3c4.7,0,8.6-3.8,8.6-8.6v-17.3
						C851.1,893.9,847.3,890.1,842.6,890.1z"/>
					<path class="st5" d="M885.8,890.1h-17.3c-4.7,0-8.6,3.8-8.6,8.6v17.3c0,4.7,3.8,8.6,8.6,8.6h17.3c4.7,0,8.6-3.8,8.6-8.6v-17.3
						C894.3,893.9,890.5,890.1,885.8,890.1z"/>
					<path class="st5" d="M933.4,890.1h-17.3c-4.7,0-8.6,3.8-8.6,8.6v17.3c0,4.7,3.8,8.6,8.6,8.6h17.3c4.7,0,8.6-3.8,8.6-8.6v-17.3
						C942,893.9,938.1,890.1,933.4,890.1z"/>
				</g>
				<g>
					<path class="st5" d="M450,847.8h-16.9c-4.6,0-8.4,3.7-8.4,8.4V873c0,4.6,3.7,8.4,8.4,8.4H450c4.6,0,8.4-3.7,8.4-8.4v-16.9
						C458.4,851.5,454.6,847.8,450,847.8z"/>
					<path class="st5" d="M455.1,973.5h-17.5c-4.8,0-8.6,3.9-8.6,8.6v17.5c0,4.8,3.9,8.6,8.6,8.6h17.5c4.8,0,8.6-3.9,8.6-8.6v-17.5
						C463.7,977.4,459.9,973.5,455.1,973.5z"/>
					<path class="st5" d="M898.1,1017H500c-4.8,0-8.6,3.9-8.6,8.6v17.5c0,4.8,3.9,8.6,8.6,8.6h398.2c4.8,0,8.6-3.9,8.6-8.6v-17.5
						C906.8,1020.9,902.9,1017,898.1,1017z"/>
					<path class="st5" d="M435.9,930.9h-17.5c-4.8,0-8.6,3.9-8.6,8.6V957c0,4.8,3.9,8.6,8.6,8.6h17.5c4.8,0,8.6-3.9,8.6-8.6v-17.5
						C444.5,934.8,440.6,930.9,435.9,930.9z"/>
					<path class="st5" d="M429.1,889.5h-17.5c-4.8,0-8.6,3.9-8.6,8.6v17.5c0,4.8,3.9,8.6,8.6,8.6h17.5c4.8,0,8.6-3.9,8.6-8.6v-17.5
						C437.7,893.4,433.8,889.5,429.1,889.5z"/>
					<path class="st5" d="M969.6,973.5h-17.5c-4.8,0-8.6,3.9-8.6,8.6v17.5c0,4.8,3.9,8.6,8.6,8.6h17.5c4.8,0,8.6-3.9,8.6-8.6v-17.5
						C978.3,977.4,974.4,973.5,969.6,973.5z"/>
					<path class="st5" d="M987.6,889.1h-17.5c-4.8,0-8.6,3.9-8.6,8.6v17.5c0,4.8,3.9,8.6,8.6,8.6h17.5c4.8,0,8.6-3.9,8.6-8.6v-17.5
						C996.3,893,992.4,889.1,987.6,889.1z"/>
					<path class="st5" d="M496,847.8h-16.9c-4.6,0-8.4,3.7-8.4,8.4V873c0,4.6,3.7,8.4,8.4,8.4H496c4.6,0,8.4-3.7,8.4-8.4v-16.9
						C504.3,851.5,500.6,847.8,496,847.8z"/>
					<path class="st5" d="M542,847.8h-16.9c-4.6,0-8.4,3.7-8.4,8.4V873c0,4.6,3.7,8.4,8.4,8.4H542c4.6,0,8.4-3.7,8.4-8.4v-16.9
						C550.3,851.5,546.6,847.8,542,847.8z"/>
					<path class="st5" d="M590.4,847.8h-16.9c-4.6,0-8.4,3.7-8.4,8.4V873c0,4.6,3.7,8.4,8.4,8.4h16.9c4.6,0,8.4-3.7,8.4-8.4v-16.9
						C598.7,851.5,595,847.8,590.4,847.8z"/>
					<path class="st5" d="M634.5,847.8h-16.9c-4.6,0-8.4,3.7-8.4,8.4V873c0,4.6,3.7,8.4,8.4,8.4h16.9c4.6,0,8.4-3.7,8.4-8.4v-16.9
						C642.8,851.5,639.1,847.8,634.5,847.8z"/>
					<path class="st5" d="M682.1,847.8h-16.9c-4.6,0-8.4,3.7-8.4,8.4V873c0,4.6,3.7,8.4,8.4,8.4h16.9c4.6,0,8.4-3.7,8.4-8.4v-16.9
						C690.4,851.5,686.7,847.8,682.1,847.8z"/>
					<path class="st5" d="M730.8,847.8h-16.9c-4.6,0-8.4,3.7-8.4,8.4V873c0,4.6,3.7,8.4,8.4,8.4h16.9c4.6,0,8.4-3.7,8.4-8.4v-16.9
						C739.1,851.5,735.4,847.8,730.8,847.8z"/>
					<path class="st5" d="M775.4,847.8h-16.9c-4.6,0-8.4,3.7-8.4,8.4V873c0,4.6,3.7,8.4,8.4,8.4h16.9c4.6,0,8.4-3.7,8.4-8.4v-16.9
						C783.8,851.5,780,847.8,775.4,847.8z"/>
					<path class="st5" d="M822.5,847.8h-16.9c-4.6,0-8.4,3.7-8.4,8.4V873c0,4.6,3.7,8.4,8.4,8.4h16.9c4.6,0,8.4-3.7,8.4-8.4v-16.9
						C830.9,851.5,827.1,847.8,822.5,847.8z"/>
					<path class="st5" d="M867.3,847.8h-16.9c-4.6,0-8.4,3.7-8.4,8.4V873c0,4.6,3.7,8.4,8.4,8.4h16.9c4.6,0,8.4-3.7,8.4-8.4v-16.9
						C875.7,851.5,871.9,847.8,867.3,847.8z"/>
					<path class="st5" d="M914.4,847.8h-16.9c-4.6,0-8.4,3.7-8.4,8.4V873c0,4.6,3.7,8.4,8.4,8.4h16.9c4.6,0,8.4-3.7,8.4-8.4v-16.9
						C922.7,851.5,919,847.8,914.4,847.8z"/>
					<path class="st5" d="M960.1,847.8h-16.9c-4.6,0-8.4,3.7-8.4,8.4V873c0,4.6,3.7,8.4,8.4,8.4h16.9c4.6,0,8.4-3.7,8.4-8.4v-16.9
						C968.4,851.5,964.7,847.8,960.1,847.8z"/>
				</g>
			</g>
			<g>
				<path class="st8" d="M466.7,1017.2h-65.9l4.8,27.3c1.4,7.9,8.2,13.7,16.3,13.7h59.8V1032
					C481.6,1023.8,474.9,1017.2,466.7,1017.2z"/>
				<path class="st8" d="M932.5,1017.2h65.9l-4.8,27.3c-1.4,7.9-8.2,13.7-16.3,13.7h-59.8V1032
					C917.6,1023.8,924.3,1017.2,932.5,1017.2z"/>
			</g>
			<path class="st7" d="M563.9,556.8l6.8,61.5l-82.3,35.5l-26.8-11.2l-8.7,30.5c0,0,76.7,99.8,245.7,100.5v0c0.3,0,0.7,0,1,0
				c0.3,0,0.7,0,1,0v0c169-0.7,245.7-100.5,245.7-100.5l-8.7-30.5l-26.8,11.2l-82.3-35.5l6.8-61.5H563.9z"/>
			<g>
				<polygon class="st11" points="570.8,618.2 488.5,653.7 461.7,642.5 568.8,605.4 				"/>
				<polygon class="st11" points="828.4,618.2 910.7,653.7 937.5,642.5 830.5,605.4 				"/>
			</g>
			<path class="st9" d="M726.6,556.8v21.1h88.5c0,0-11.8,71.4-115.4,69.2v0.1C595.9,649.5,584.1,578,584.1,578h88.5v-21.2H726.6z"/>
			<g>
				<polygon class="st9" points="703.5,727.6 703.5,603.8 699.1,603.8 699.1,727.6 697.1,727.6 697.1,765.5 705.5,765.5 
					705.5,727.6 				"/>
			</g>
			<g>
				<polygon class="st9" points="722.5,725.6 706.4,602.8 702.1,603.4 718.2,726.1 716.2,726.4 721.1,763.9 729.5,762.8 
					724.6,725.3 				"/>
			</g>
			<g>
				<polygon class="st9" points="742.3,723.8 710.3,604.2 706.1,605.3 738.2,724.9 736.2,725.5 746,762 754.1,759.8 744.3,723.3 
									"/>
			</g>
			<g>
				<polygon class="st9" points="762,721.9 714.6,607.5 710.6,609.2 758,723.6 756.1,724.3 770.6,759.3 778.4,756.1 763.9,721.1 
									"/>
			</g>
			<g>
				<polygon class="st9" points="781.3,716 719.4,608.8 715.6,611 777.5,718.2 775.8,719.2 794.7,752 802,747.8 783.1,715 				"/>
			</g>
			<g>
				<polygon class="st9" points="802.1,709.1 726.7,610.9 723.3,613.5 798.7,711.7 797,713 820.1,743 826.8,737.9 803.7,707.9 				
					"/>
			</g>
			<g>
				<polygon class="st9" points="821.9,698 734.4,610.4 731.3,613.5 818.9,701.1 817.4,702.5 844.2,729.3 850.1,723.3 823.4,696.5 
									"/>
			</g>
			<g>
				<polygon class="st9" points="849,690.8 750.7,615.4 748.1,618.8 846.3,694.2 845.1,695.8 875.1,718.9 880.3,712.2 850.2,689.1 
									"/>
			</g>
			<g>
				<polygon class="st9" points="868.6,673.7 761.3,611.8 759.2,615.5 866.4,677.5 865.4,679.2 898.2,698.2 902.4,690.9 
					869.6,671.9 				"/>
			</g>
			<g>
				<polygon class="st9" points="875.4,651.3 761,603.9 759.4,607.9 873.8,655.3 873,657.2 908,671.7 911.2,663.8 876.2,649.4 				
					"/>
			</g>
			<g>
				<polygon class="st9" points="522.6,658.1 637,610.7 635.4,606.7 521,654.1 520.2,652.2 485.2,666.7 486.5,669.2 523.4,660 				
					"/>
			</g>
			<g>
				<polygon class="st9" points="533,680.2 640.3,618.3 638.1,614.5 530.9,676.4 529.8,674.6 497,693.6 501.3,700.9 534.1,682 				
					"/>
			</g>
			<g>
				<polygon class="st9" points="549.5,693.6 647.7,618.3 645.1,614.8 546.9,690.2 545.6,688.6 515.6,711.6 520.7,718.3 
					550.8,695.3 				"/>
			</g>
			<g>
				<polygon class="st9" points="573.6,703.9 661.2,616.3 658.1,613.3 570.6,700.8 569.1,699.4 542.3,726.1 548.3,732.1 
					575.1,705.3 				"/>
			</g>
			<g>
				<polygon class="st9" points="597.2,711.2 672.6,613 669.1,610.3 593.8,708.6 592.1,707.3 569.1,737.3 575.8,742.5 598.8,712.4 
									"/>
			</g>
			<g>
				<polygon class="st9" points="620.6,718.2 682.5,611 678.7,608.8 616.8,716 615,715 596.1,747.8 603.4,752 622.3,719.2 				"/>
			</g>
			<g>
				<polygon class="st9" points="643.5,721.3 690.8,606.9 686.8,605.3 639.5,719.6 637.6,718.9 623.1,753.8 630.9,757.1 
					645.4,722.1 				"/>
			</g>
			<g>
				<polygon class="st9" points="663.3,725.5 695.4,605.9 691.2,604.8 659.2,724.4 657.2,723.8 647.4,760.4 655.5,762.6 665.3,726 
									"/>
			</g>
			<g>
				<polygon class="st9" points="682.7,726.7 698.8,603.9 694.6,603.4 678.4,726.1 676.4,725.8 671.4,763.4 679.8,764.5 684.7,727 
									"/>
			</g>
			<rect x="334.9" y="510.9" class="st7" width="22.7" height="28.2"/>
			
				<rect x="320.3" y="501.2" transform="matrix(-1 -1.224647e-16 1.224647e-16 -1 655.1219 1050.074)" class="st7" width="14.6" height="47.6"/>
			<g>
				<rect x="1080" y="444.4" class="st8" width="59" height="8.9"/>
				<rect x="1080" y="466.5" class="st8" width="59" height="8.9"/>
				<rect x="1080" y="488.6" class="st8" width="59" height="8.9"/>
				<rect x="1080" y="510.7" class="st8" width="59" height="8.9"/>
				<rect x="1080" y="532.7" class="st8" width="59" height="8.9"/>
				<rect x="1080" y="554.8" class="st8" width="59" height="8.9"/>
			</g>
			<rect x="1121.2" y="438" class="st12" width="17.8" height="133.6"/>
			<path class="st8" d="M410.4,523.2V346.8l578.5,0v176.4h18.1V344.7c0-8.8-7.7-16-17.1-16H409.3c-9.4,0-17.1,7.2-17.1,16v178.5
				H410.4z"/>
			<path class="st7" d="M353.4,389.1h22.8v-21.9h-89.1c-6.4,0-11.6,5.2-11.6,11.6v148.3l-29.8,15.1c-4.3,2.2-7,6.5-7,11.3v17.8
				c0,7,5.7,12.7,12.7,12.7h35.9c7,0,12.7-5.7,12.7-12.7V409.6c0-4.1,3.3-7.3,7.3-7.3h23.1c3.5,0,6.7-1.8,8.6-4.7l0.6-0.9
				C342.6,391.9,347.8,389.1,353.4,389.1z"/>
			<rect x="446.1" y="135.9" class="st5" width="516.6" height="420.9"/>
			<path class="st8" d="M410.4,556.7v-55.5l578.5,0v55.5h18.1v-57.6c0-8.8-7.7-16-17.1-16H409.3c-9.4,0-17.1,7.2-17.1,16v57.6H410.4
				z"/>
			<path class="st9" d="M577.3,479H495c-3.9,0-7.1,3.2-7.1,7.1v14.7c0,3.9,3.2,7.1,7.1,7.1h82.2c3.9,0,7.1-3.2,7.1-7.1v-14.7
				C584.4,482.2,581.2,479,577.3,479z"/>
			<path class="st9" d="M908,479h-82.2c-3.9,0-7.1,3.2-7.1,7.1v14.7c0,3.9,3.2,7.1,7.1,7.1H908c3.9,0,7.1-3.2,7.1-7.1v-14.7
				C915.1,482.2,911.9,479,908,479z"/>
			<path class="st7" d="M1092.6,358.2c0-7.8-6.3-14.1-14.1-14.1h-13.4c-7.8,0-14.1,6.3-14.1,14.1v6.5h-30.8v26.5h59.1
				c7.3,0,13.3-5.9,13.3-13.3v0C1092.6,377.2,1092.6,358.2,1092.6,358.2z"/>
		</g>
		<g class="st13">
			<path class="st3" d="M578.5,1013.3c-4.5,7.5-44.2,51.3-44.2,51.3l51.6-140.8c2.5-6.8-1-14.3-7.8-16.8l-5.7-2.1
				c-6.8-2.5-14.3,1-16.8,7.8L507.7,1043c-1.2,3.4-5,5.1-8.4,3.9h0c-3.4-1.2-5.1-5-3.9-8.4l52.4-143c2.5-6.8-1-14.3-7.8-16.8l-2.7-1
				c-6.8-2.5-14.3,1-16.8,7.8l-52.4,143c-1.2,3.4-5,5.1-8.4,3.9h0c-3.4-1.2-5.1-5-3.9-8.4l48-131.1c2.5-6.8-1-14.3-7.8-16.8l-2-0.7
				c-6.8-2.5-14.3,1-16.8,7.8l-48,131.1c-1.2,3.4-5,5.1-8.4,3.9c-3.4-1.2-5.1-5-3.9-8.4l31.6-86.2c2.5-6.8-1-14.3-7.8-16.8
				c-6.8-2.5-14.3,1-16.8,7.8l-63.3,173c-10.7,31.7,9.9,65.5,9.9,65.5l-17.7,48.3l0.4,0.4l-13.4-5.1l-12.9,33.6l-9.7-3.7L250.8,1400
				h186.6l42.6-111.3l-11.5-4.4l12.9-33.6l-11.5-4.4l0.5,0l13.9-38.1c12.2-3.2,68.5-69,70.4-83.5c1.9-14.5,36-74.5,49.7-95.7
				C618,1007.6,583.2,1005.3,578.5,1013.3z"/>
			<path class="st3" d="M1118.1,1226.4l-9.7,3.7l-12.9-33.6l-13.4,5.1l0.3-0.3l-17.7-48.3c0,0,20.7-33.8,9.9-65.5l-63.3-173
				c-2.5-6.8-10-10.3-16.8-7.8c-6.8,2.5-10.3,10-7.8,16.8l31.6,86.2c1.2,3.4-0.5,7.1-3.9,8.4c-3.4,1.2-7.1-0.5-8.4-3.9l-48-131.1
				c-2.5-6.8-10-10.3-16.8-7.8l-2,0.7c-6.8,2.5-10.3,10-7.8,16.8l48,131.1c1.2,3.4-0.5,7.1-3.9,8.4h0c-3.4,1.2-7.1-0.5-8.4-3.9
				l-52.4-143c-2.5-6.8-10-10.3-16.8-7.8l-2.7,1c-6.8,2.5-10.3,10-7.8,16.8l52.4,143c1.2,3.4-0.5,7.1-3.9,8.4h0
				c-3.4,1.2-7.1-0.5-8.4-3.9l-47.7-130.3c-2.5-6.8-10-10.3-16.8-7.8l-5.7,2.1c-6.8,2.5-10.3,10-7.8,16.8l51.6,140.8
				c0,0-39.8-43.8-44.2-51.3c-4.7-8-39.6-5.6-25.9,15.6c13.7,21.2,47.8,81.2,49.7,95.7c1.9,14.5,58.2,80.4,70.4,83.5l13.9,38.1
				l0.5,0l-11.6,4.4l12.9,33.6l-11.5,4.4l42.6,111.3h186.6L1118.1,1226.4z"/>
		</g>
		<g>
			<circle class="st5" cx="1211.3" cy="806.1" r="135.4"/>
			<circle class="st14" cx="1211.3" cy="806.1" r="108.8"/>
			<path class="st15" d="M1251.9,705.2c-2.8-1.1-5.7-2.1-8.6-3c33.5,26.2,47.2,72.4,30.5,113.8c-20.2,50.3-77.3,74.6-127.6,54.4
				c-14.5-5.8-26.9-14.7-36.6-25.7c10.4,27.4,31.8,50.5,61.1,62.3c55.7,22.4,119.1-4.6,141.5-60.3
				C1334.6,790.9,1307.6,727.6,1251.9,705.2z"/>
			<path class="st5" d="M1183.9,922.2l-43.5-17.5l-36.9,91.8c-4.8,12,1,25.7,13,30.5l0,0c12,4.8,25.7-1,30.5-13L1183.9,922.2z"/>
			<circle class="st15" cx="1160.3" cy="767.6" r="13.7"/>
			<circle class="st15" cx="1195.1" cy="793.3" r="10.9"/>
			<circle class="st15" cx="1203.2" cy="746.9" r="13.8"/>
			<circle class="st15" cx="1226.8" cy="785.3" r="5.8"/>
		</g>
		<rect x="523.1" y="265" class="st7" width="372.9" height="12.1"/>
		<rect x="523.1" y="315" class="st7" width="372.9" height="12.1"/>
		<rect x="523.1" y="369.6" class="st7" width="372.9" height="12.1"/>
		<rect x="523.1" y="415.1" class="st7" width="211" height="12.1"/>
		<g>
			<path class="st16" d="M308.4,859.7l55.5,238.5c5.9,25.2-9.8,50.4-35,56.2l-194.4,45.3c-9.9,2.3-19.8-3.9-22.1-13.8L44,892.1
				c-2.3-9.9,3.9-19.8,13.8-22.1l194.4-45.3C277.4,818.8,302.5,834.5,308.4,859.7z"/>
			<path class="st5" d="M321.1,1120.8l-192.8,44.9c-3.3,0.8-5.3,4-4.5,7.3l2.9,12.5c0.8,3.3,4,5.3,7.3,4.5l192.8-44.9
				c20-4.7,32.5-24.7,27.8-44.7l-5.7-24.3C353.6,1096.1,341.1,1116.2,321.1,1120.8z"/>
			<polygon class="st7" points="143.1,1162.1 157.4,1194.4 169.5,1191.6 168,1156.3 			"/>
			
				<rect x="69.9" y="934.3" transform="matrix(0.9739 -0.2268 0.2268 0.9739 -218.8194 71.6323)" class="st5" width="264.9" height="107.5"/>
			
				<rect x="108.3" y="859.3" transform="matrix(0.9739 -0.2268 0.2268 0.9739 -226.1858 53.8223)" class="st7" width="25.6" height="303.9"/>
		</g>
		<g>
			<g>
				<g>
					<g>
						<polygon class="st17" points="413.8,1400 456.4,1288.7 293.6,1226.4 227.2,1400 						"/>
						<polygon class="st18" points="247.5,1400 311.3,1233.2 293.6,1226.4 227.2,1400 						"/>
						<polygon class="st19" points="413.8,1400 456.4,1288.7 401.2,1267.6 350.6,1400 						"/>
					</g>
					<g>
						
							<rect x="362.5" y="1164.6" transform="matrix(0.3573 -0.934 0.934 0.3573 -913.9489 1152.5565)" class="st20" width="36" height="151.5"/>
						
							<rect x="415.4" y="1241.5" transform="matrix(0.3573 -0.934 0.934 0.3573 -898.8634 1214.933)" class="st21" width="36" height="38.3"/>
					</g>
				</g>
				<path class="st22" d="M346.9,1152.9l-17.7,48.3l117.4,44.9l13.9-38.1c12.2-3.2,68.5-69,70.4-83.5c1.9-14.5,36-74.5,49.7-95.7
					c13.7-21.2-21.1-23.6-25.9-15.6c-4.5,7.5-44.2,51.3-44.2,51.3l51.6-140.8c2.5-6.8-1-14.3-7.8-16.8l-5.7-2.1
					c-6.8-2.5-14.3,1-16.8,7.8L484.1,1043c-1.2,3.4-5,5.1-8.4,3.9h0c-3.4-1.2-5.1-5-3.9-8.4l52.4-143c2.5-6.8-1-14.3-7.8-16.8
					l-2.7-1c-6.8-2.5-14.3,1-16.8,7.8l-52.4,143c-1.2,3.4-5,5.1-8.4,3.9l0,0c-3.4-1.2-5.1-5-3.9-8.4l48-131.1
					c2.5-6.8-1-14.3-7.8-16.8l-2-0.7c-6.8-2.5-14.3,1-16.8,7.8l-48,131.1c-1.2,3.4-5,5.1-8.4,3.9c-3.4-1.2-5.1-5-3.9-8.4l31.6-86.2
					c2.5-6.8-1-14.3-7.8-16.8c-6.8-2.5-14.3,1-16.8,7.8l-63.3,173C326.3,1119.1,346.9,1152.9,346.9,1152.9z"/>
			</g>
			<g>
				<g>
					<g>
						<polygon class="st17" points="1160.9,1400 1094.5,1226.4 931.8,1288.7 974.4,1400 						"/>
						<polygon class="st18" points="1160.9,1400 1094.5,1226.4 1076.8,1233.2 1140.7,1400 						"/>
						<polygon class="st19" points="1037.6,1400 986.9,1267.6 931.8,1288.7 974.4,1400 						"/>
					</g>
					<g>
						
							<rect x="931.9" y="1222.4" transform="matrix(0.934 -0.3573 0.3573 0.934 -376.7016 441.9412)" class="st20" width="151.5" height="36"/>
						
							<rect x="935.6" y="1242.6" transform="matrix(0.934 -0.3573 0.3573 0.934 -387.4195 424.3854)" class="st21" width="38.3" height="36"/>
					</g>
				</g>
				<path class="st22" d="M1041.2,1152.9l17.7,48.3l-117.4,44.9l-13.9-38.1c-12.2-3.2-68.5-69-70.4-83.5
					c-1.9-14.5-36-74.5-49.7-95.7c-13.7-21.2,21.1-23.6,25.9-15.6c4.5,7.5,44.2,51.3,44.2,51.3l-51.6-140.8
					c-2.5-6.8,1-14.3,7.8-16.8l5.7-2.1c6.8-2.5,14.3,1,16.8,7.8L904,1043c1.2,3.4,5,5.1,8.4,3.9h0c3.4-1.2,5.1-5,3.9-8.4l-52.4-143
					c-2.5-6.8,1-14.3,7.8-16.8l2.7-1c6.8-2.5,14.3,1,16.8,7.8l52.4,143c1.2,3.4,5,5.1,8.4,3.9l0,0c3.4-1.2,5.1-5,3.9-8.4l-48-131.1
					c-2.5-6.8,1-14.3,7.8-16.8l2-0.7c6.8-2.5,14.3,1,16.8,7.8l48,131.1c1.2,3.4,5,5.1,8.4,3.9c3.4-1.2,5.1-5,3.9-8.4l-31.6-86.2
					c-2.5-6.8,1-14.3,7.8-16.8c6.8-2.5,14.3,1,16.8,7.8l63.3,173C1061.8,1119.1,1041.2,1152.9,1041.2,1152.9z"/>
			</g>
		</g>
	</g>
</g>
</svg>
